<?xml version="1.0" encoding="UTF-8" standalone="no"?>
<!-- Created with Inkscape (http://www.inkscape.org/) -->

<svg
   width="255.99989"
   height="256.00012"
   viewBox="0 0 67.733305 67.733366"
   version="1.1"
   id="svg5"
   xml:space="preserve"
   inkscape:version="1.2 (dc2aedaf03, 2022-05-15)"
   sodipodi:docname="logo.svg"
   xmlns:inkscape="http://www.inkscape.org/namespaces/inkscape"
   xmlns:sodipodi="http://sodipodi.sourceforge.net/DTD/sodipodi-0.dtd"
   xmlns="http://www.w3.org/2000/svg"
   xmlns:svg="http://www.w3.org/2000/svg"><sodipodi:namedview
     id="namedview7"
     pagecolor="#505050"
     bordercolor="#ffffff"
     borderopacity="1"
     inkscape:showpageshadow="0"
     inkscape:pageopacity="0"
     inkscape:pagecheckerboard="1"
     inkscape:deskcolor="#505050"
     inkscape:document-units="px"
     showgrid="false"
     inkscape:zoom="1.5319853"
     inkscape:cx="189.62323"
     inkscape:cy="132.18142"
     inkscape:window-width="1916"
     inkscape:window-height="1054"
     inkscape:window-x="0"
     inkscape:window-y="0"
     inkscape:window-maximized="1"
     inkscape:current-layer="layer1" /><defs
     id="defs2" /><g
     inkscape:label="Layer 1"
     inkscape:groupmode="layer"
     id="layer1"
     transform="translate(-42.760099,-99.87564)"><g
       id="g1926"
       transform="matrix(1.0488833,0,0,1.0417743,-25.061119,-0.42445274)"><path
         style="fill:#ecd454;stroke:#ecd454;stroke-width:2.06375;stroke-linecap:square;stroke-linejoin:round;stroke-miterlimit:0;stroke-dasharray:none;stroke-opacity:1;paint-order:fill markers stroke"
         d="m 91.454961,156.62672 c -1.444591,-0.50839 -2.500503,-0.70714 -4.211095,-0.79262 -2.33574,-0.11672 -4.223868,-0.34821 -6.435649,-0.78902 -3.106142,-0.61906 -4.590721,-1.138 -6.381076,-2.23054 -1.152607,-0.70336 -2.064126,-1.44571 -3.132162,-2.55083 -1.321479,-1.36738 -2.08526,-2.4342 -2.881426,-4.0247 -1.266913,-2.53089 -1.838566,-5.16403 -1.747183,-8.04785 0.100279,-3.16455 0.935304,-5.84609 2.645353,-8.49512 1.410345,-2.18475 2.258919,-4.5666 2.57959,-7.2406 0.107427,-0.89581 0.09246,-2.87716 -0.02863,-3.78991 -0.417763,-3.14908 -1.528772,-5.84839 -3.394323,-8.24685 -0.757438,-1.09085 -1.686549,-1.92603 -2.776133,-2.85578 2.015777,-1.86152 9.700569,-8.581449 11.302852,-10.230209 1.396826,1.052157 3.116918,2.112778 4.620677,2.683129 4.890882,1.5175 7.870258,1.71242 15.337922,-2.705822 6.769072,4.326912 11.135652,4.179252 15.337922,2.705822 1.4087,-0.524519 4.60754,-2.547004 4.60754,-2.547004 0,0 5.74695,5.128714 11.30603,10.129394 -0.92655,0.85143 -1.965,1.80035 -2.76715,2.82047 -1.82353,2.34906 -2.9105,4.93754 -3.36119,8.0043 -0.16735,1.13879 -0.18418,3.11365 -0.036,4.21972 0.3588,2.67744 1.16226,4.89621 2.55334,7.05114 1.7101,2.64912 2.54599,5.33245 2.64705,8.49732 0.12262,3.84005 -0.95953,7.34469 -3.23919,10.49048 -0.59037,0.81468 -2.21288,2.47253 -3.04342,3.10971 -1.22758,0.94179 -2.64951,1.75231 -3.93802,2.24473 -1.13551,0.43396 -4.01929,1.08908 -6.17897,1.4037 -1.31641,0.19178 -2.65716,0.31832 -4.17817,0.39432 -2.26294,0.11309 -3.9138,0.53257 -5.73762,1.4579 -1.655111,0.85224 -2.744528,1.8624 -3.980669,2.97162 -1.625998,-1.49986 -3.588325,-2.94374 -5.4902,-3.6369 z"
         id="path489"
         sodipodi:nodetypes="cssssssssscccccccccscsssssssccc" /><path
         id="path1029"
         style="fill:#000000;stroke-width:0.0597363"
         inkscape:label="sign"
         d="m 96.953772,97.309823 -0.426847,0.330729 C 92.156499,101.02699 86.676116,101.89979 81.61569,100.0156 80.206987,99.491082 78.790672,98.70615 77.61025,97.795581 77.293292,97.551082 77.01662,97.34266 76.9953,97.33256 c -0.02686,-0.01273 -9.287411,8.36887 -11.303186,10.23038 -0.02361,0.0218 0.160628,0.2024 0.409278,0.40153 0.625377,0.50083 1.773777,1.69171 2.36678,2.45411 1.865549,2.39846 2.976862,5.09797 3.394625,8.24704 0.12109,0.91275 0.135849,2.89415 0.02842,3.78995 -0.320671,2.674 -1.169344,5.05564 -2.579687,7.24039 -1.710048,2.64903 -2.545038,5.33054 -2.645317,8.49509 -0.09138,2.88382 0.480268,5.5172 1.74718,8.04809 0.796165,1.59049 1.56,2.65718 2.881478,4.02456 1.068035,1.10512 1.979503,1.84739 3.132109,2.55074 1.790353,1.09254 3.274867,1.61182 6.381005,2.23088 2.211779,0.44081 4.100046,0.67186 6.435783,0.78858 1.710591,0.0855 2.766523,0.28433 4.211113,0.79272 1.811179,0.63739 3.899605,1.98102 5.172811,3.32796 0.160613,0.16992 0.303343,0.30902 0.317293,0.30902 0.01395,0 0.241177,-0.21352 0.504879,-0.47439 1.027248,-1.01622 2.158118,-1.82847 3.475756,-2.497 1.82382,-0.92533 3.4747,-1.34522 5.73764,-1.45831 1.52101,-0.076 2.86214,-0.20251 4.17855,-0.39429 2.15968,-0.31462 5.04345,-0.96957 6.17895,-1.40353 1.28851,-0.49242 2.71017,-1.30304 3.93775,-2.24483 0.83054,-0.63718 2.45337,-2.29469 3.04374,-3.10937 2.27966,-3.14579 3.3617,-6.65079 3.23908,-10.49083 -0.10106,-3.16487 -0.93729,-5.84804 -2.64738,-8.49716 -1.39108,-2.15493 -2.19454,-4.37381 -2.55334,-7.05125 -0.14818,-1.10607 -0.13117,-3.08111 0.0362,-4.21989 0.45069,-3.06676 1.5375,-5.65511 3.36103,-8.00417 0.57841,-0.7451 1.65943,-1.8724 2.30942,-2.40864 0.25149,-0.20748 0.45726,-0.39286 0.45785,-0.41186 0.001,-0.0575 -11.24983,-10.28557 -11.29233,-10.26552 -0.0217,0.01023 -0.29852,0.218522 -0.61547,0.463021 -1.18042,0.910569 -2.59674,1.695501 -4.00544,2.220019 -5.06042,1.88419 -10.54132,1.01139 -14.911749,-2.375048 z m 0,1.999361 0.544153,0.361218 c 2.305006,1.528148 4.658045,2.425548 7.252785,2.766758 4.05287,0.53294 7.99114,-0.38731 11.55537,-2.701129 0.54987,-0.356964 0.55421,-0.359088 0.67799,-0.244429 0.0686,0.0635 2.07147,1.883368 4.45038,4.044198 2.3789,2.16083 4.34904,3.95127 4.37854,3.97857 0.0305,0.0282 -0.20505,0.32703 -0.54518,0.69091 -1.79894,1.92458 -3.18492,4.27894 -4.00338,6.80114 l -0.23306,0.7183 -24.075014,0.015 c -19.230905,0.0122 -24.079838,1.3e-4 -24.098788,-0.0605 -0.968817,-3.09825 -2.249888,-5.36857 -4.21783,-7.47396 -0.340128,-0.36388 -0.576183,-0.66271 -0.545703,-0.69091 0.02954,-0.0273 2.000158,-1.81774 4.379061,-3.97857 2.378902,-2.16083 4.383755,-3.982719 4.455025,-4.048849 l 0.129708,-0.120406 0.311609,0.211873 c 4.377048,2.968752 9.562419,3.773932 14.537614,2.257742 1.554667,-0.47378 2.995297,-1.16682 4.50205,-2.165758 z m -6.825423,5.633246 c -0.371906,0.001 -0.74555,0.0367 -1.001489,0.10646 -0.899881,0.24537 -1.673189,0.92813 -2.112533,1.86448 -0.378127,0.80588 -0.443934,1.17447 -0.444934,2.50476 -0.001,1.32181 0.06134,1.66957 0.449068,2.50734 0.179219,0.38724 0.333247,0.60842 0.656291,0.94154 0.479893,0.49486 0.845528,0.71699 1.463476,0.88935 v -5.1e-4 c 0.623097,0.17375 1.736384,0.13673 2.294434,-0.0765 0.840869,-0.32126 1.475591,-0.92053 1.86862,-1.76372 0.392826,-0.84276 0.4423,-1.12132 0.4439,-2.49804 0.0013,-1.08176 -0.01323,-1.26374 -0.131775,-1.68517 -0.395895,-1.40746 -1.277915,-2.3593 -2.492871,-2.69027 -0.249927,-0.0679 -0.620281,-0.10103 -0.992187,-0.0997 z m -10.769885,0.14004 v 4.33566 4.33565 h 0.794266 0.794267 v -1.81901 -1.81953 h 0.13901 c 0.11157,0 0.241516,0.15271 0.658874,0.7736 0.285838,0.42523 0.847207,1.25751 1.247469,1.8495 l 0.727604,1.07642 h 1.029395 c 0.842606,0 1.020889,-0.0148 0.982369,-0.0811 -0.02588,-0.0445 -0.626358,-0.89174 -1.334286,-1.88258 -0.707926,-0.99084 -1.277615,-1.80949 -1.265555,-1.81849 0.01206,-0.009 0.180975,-0.0466 0.375171,-0.0827 0.804206,-0.14935 1.466403,-0.52453 1.780769,-1.00924 0.292088,-0.45037 0.383695,-0.85577 0.357085,-1.57665 -0.01961,-0.53138 -0.0469,-0.66744 -0.204639,-1.01338 -0.320369,-0.7026 -0.814467,-1.07233 -1.609721,-1.20406 -0.212529,-0.0352 -1.291034,-0.0633 -2.427242,-0.0636 z m 15.762862,0 0.02222,3.22927 c 0.01979,2.8273 0.03546,3.27329 0.124023,3.58789 0.281895,1.00135 0.967684,1.66604 1.945101,1.88516 0.432937,0.0971 1.605127,0.11373 2.039152,0.0289 0.844888,-0.1651 1.618338,-0.77853 1.875858,-1.48776 0.21372,-0.58869 0.2459,-1.07051 0.2806,-4.19664 l 0.0341,-3.04685 h -0.83199 -0.831995 v 3.0515 c 0,3.45689 -0.0052,3.50593 -0.404627,3.8778 -0.280106,0.26076 -0.576989,0.36655 -1.037146,0.37155 -0.710436,0.007 -1.193482,-0.25838 -1.451074,-0.79737 l -0.137976,-0.28783 -0.01705,-3.10782 -0.01705,-3.10783 h -0.796334 z m 7.010944,0 v 0.94 0.93999 h 1.17719 1.17667 v 3.38533 c 0,1.8621 0.0177,3.40394 0.0393,3.42614 0.0216,0.0222 0.39218,0.0403 0.82373,0.0403 h 0.78496 v -3.42563 -3.42615 h 1.20613 1.20664 v -0.93999 -0.94 h -3.20755 z m 7.00267,0 v 4.36615 4.36562 h 2.70733 2.70681 v -0.78806 -0.78859 h -1.79472 -1.79524 v -0.93947 -0.94 h 1.79524 1.79472 v -0.93999 -0.94 h -1.79472 -1.79524 v -0.75809 -0.75758 h 1.79524 1.79472 v -0.93999 -0.94 h -2.70681 z m -18.978169,1.36685 c 0.464332,-0.002 0.571286,0.0185 0.866614,0.16794 0.348537,0.17636 0.682747,0.51994 0.870231,0.89452 0.417552,0.83423 0.45141,2.66939 0.06615,3.58066 -0.243417,0.57575 -0.703557,1.03966 -1.184941,1.19425 -1.183736,0.38015 -2.206306,-0.29659 -2.57297,-1.70223 -0.06927,-0.26555 -0.0987,-0.6218 -0.0987,-1.19682 0,-1.48369 0.367712,-2.31416 1.2299,-2.77761 0.251915,-0.13541 0.370274,-0.15871 0.823722,-0.16071 z m -9.209774,0.0889 1.162203,0.001 c 1.309905,0.001 1.524824,0.0528 1.784387,0.4284 0.323444,0.46806 0.163701,1.32535 -0.298173,1.60042 -0.185052,0.11023 -0.33021,0.12474 -1.427303,0.14314 l -1.221114,0.0207 v -1.09709 z m -7.722009,10.79314 h 23.728784 23.728268 l -0.0393,0.21704 c -0.22097,1.21485 -0.31378,3.10702 -0.21498,4.39146 0.2509,3.26084 1.19363,6.05981 2.95124,8.76226 1.19214,1.83301 1.92796,3.87325 2.24173,6.21564 0.11512,0.8592 0.0988,2.96099 -0.0295,3.82044 -0.79681,5.33803 -4.07481,9.68763 -8.79429,11.66905 -1.92096,0.80649 -6.69351,1.68534 -9.89811,1.82263 -1.28735,0.0551 -2.05867,0.14131 -3.01377,0.33693 -2.2984,0.47075 -4.660258,1.61746 -6.50296,3.15692 -0.234998,0.19633 -0.434467,0.35543 -0.442867,0.35243 -0.0084,-0.003 -0.173741,-0.14151 -0.367937,-0.30851 -0.890971,-0.76615 -2.207915,-1.60246 -3.393591,-2.15491 -1.882763,-0.87725 -3.658939,-1.27532 -6.169132,-1.38286 -3.21036,-0.13754 -7.973685,-1.01469 -9.898104,-1.82263 -3.83115,-1.60847 -6.868308,-4.94576 -8.16436,-8.97102 -0.5523,-1.71532 -0.733655,-2.86736 -0.735355,-4.66897 -0.0012,-1.30145 0.05777,-1.95995 0.270267,-3.00137 0.385589,-1.88966 1.047537,-3.52637 2.047421,-5.06377 1.750482,-2.6915 2.700835,-5.50595 2.948657,-8.73177 0.101151,-1.31666 0.01104,-3.1947 -0.21239,-4.42195 z m 12.794568,2.19728 c -0.111834,-0.0384 -1.653503,1.35952 -2.750737,2.49442 -2.0412,2.11128 -3.458747,4.11452 -4.699455,6.64146 -1.636122,3.33227 -2.511443,6.74386 -2.747635,10.70994 -0.159017,2.67014 0.119071,4.453 0.964282,6.18773 0.876668,1.7993 2.232621,3.17621 4.028694,4.08968 1.004943,0.51111 2.261845,0.88825 3.398759,1.02061 2.120307,0.24685 4.430184,-0.14711 6.266801,-1.06867 1.808931,-0.90767 3.368,-2.49379 4.206979,-4.27984 1.385627,-2.9498 1.153034,-6.50198 -0.606165,-9.25525 -0.457724,-0.71637 -1.530012,-1.80805 -2.278414,-2.31976 -2.205845,-1.50823 -5.043261,-2.10112 -7.762317,-1.62212 -0.377436,0.0665 -0.894705,0.17536 -1.149284,0.24236 -0.705068,0.18549 -0.678278,0.22395 -0.40876,-0.59066 0.501114,-1.5146 1.494253,-3.32536 2.619478,-4.77542 0.628971,-0.81055 2.02082,-2.25041 2.813265,-2.91042 0.320344,-0.26681 0.642736,-0.53946 0.716236,-0.60616 l 0.133325,-0.12144 -1.348238,-1.90996 c -0.741556,-1.05044 -1.370044,-1.9175 -1.396814,-1.9265 z m 22.560894,0.13591 c -0.31888,0.007 -3.08013,2.65893 -4.21628,4.06435 -3.40954,4.21764 -5.366771,9.03322 -5.914882,14.55312 -0.12274,1.23607 -0.142156,3.7486 -0.03411,4.4266 0.34499,2.1648 1.169585,3.88254 2.544032,5.30097 1.45763,1.50428 3.34662,2.43392 5.6162,2.76417 0.85084,0.1238 2.67508,0.0825 3.55999,-0.0811 2.25401,-0.41669 4.09722,-1.40903 5.56813,-2.99672 1.74721,-1.8859 2.62645,-4.50951 2.3859,-7.11946 -0.21369,-2.31846 -0.98581,-4.06378 -2.4784,-5.60172 -1.23639,-1.27395 -2.66348,-2.08572 -4.46071,-2.53783 -1.01296,-0.25483 -1.68803,-0.3348 -2.80965,-0.3328 -1.06834,0.002 -1.94775,0.12272 -2.99671,0.41135 l -0.5178,0.14211 0.03,-0.19121 c 0.0543,-0.34452 0.45495,-1.38373 0.86662,-2.24896 1.07691,-2.2634 2.79784,-4.40024 5.0431,-6.26111 0.3718,-0.30815 0.53136,-0.47677 0.49506,-0.52297 -0.0294,-0.0375 -0.62758,-0.88668 -1.32964,-1.88722 -0.70205,-1.00053 -1.29936,-1.84369 -1.32756,-1.87379 -0.005,-0.005 -0.013,-0.008 -0.0233,-0.008 z m -38.313421,3.23495 c -0.01006,-0.0108 -0.0177,0.0268 -0.0186,0.1018 -0.0012,0.10027 0.01127,0.14807 0.02739,0.10697 0.01614,-0.041 0.01699,-0.1229 0.0021,-0.1819 -0.0037,-0.0148 -0.0075,-0.0233 -0.01085,-0.0269 z m 15.417147,13.99087 c 0.912979,-9.2e-4 1.051472,0.0135 1.583882,0.16588 1.028659,0.29447 1.793591,0.75097 2.506307,1.49552 0.514082,0.53705 0.824176,1.05334 1.040247,1.73168 0.198557,0.62334 0.224799,1.66708 0.05633,2.23965 -0.247505,0.84117 -0.740475,1.59705 -1.408699,2.16008 -0.445993,0.37578 -1.378696,0.8545 -2.012281,1.03249 -0.678441,0.19057 -2.312512,0.22407 -3.030822,0.062 -1.83446,-0.41386 -3.265713,-1.60799 -3.746025,-3.12488 -0.196389,-0.62024 -0.220603,-1.5949 -0.05529,-2.21692 0.433012,-1.62934 1.766428,-2.90253 3.566191,-3.40496 0.429073,-0.11983 0.641969,-0.1397 1.500167,-0.14056 z m 22.336104,0.0935 c 1.86792,-0.058 3.73247,0.75826 4.73614,2.20761 1.83052,2.64332 0.29007,6.01711 -3.06131,6.70399 -2.91995,0.59847 -5.68217,-0.73459 -6.48022,-3.12694 -0.22033,-0.66053 -0.23262,-1.59267 -0.03,-2.27118 0.44423,-1.4874 1.49053,-2.58837 2.99826,-3.15537 0.5917,-0.22251 1.21446,-0.3388 1.8371,-0.35811 z" /></g></g></svg>
